<svg fill="none" xmlns="http://www.w3.org/2000/svg" viewBox="0 0 200 200"><g clip-path="url(#a)"><circle cx="100" cy="100" r="100" fill="#000"/><path d="M162.932 117.128c-1.215-2.124-3.431-3.57-6.577-4.302a14 14 0 0 0-2.507-.339c-4.559-.218-13.324-1.539-20.788-7.942-3.48-2.987-8.123-8.36-10.487-17.03-.512-1.855-1.341-8.859-1.215-34.92.011-2.883-.545-5.568-1.662-7.982a17.3 17.3 0 0 0-3.63-5.181c-11.848-11.52-37.872-2.583-51.728 7.079-24.302 16.953-27.015 45.832-27.12 47.055-1.138 13.396 2.206 27.379 9.416 39.372 7.17 11.945 17.905 21.487 30.229 26.871 1.7.742 12.472 5.191 26.655 5.191 7.187 0 15.249-1.146 23.451-4.493 17.71-7.228 32.23-22.863 36.03-33.81q1.002-2.882 1.001-5.256c0-1.584-.353-3.069-1.068-4.313m-38.053 38.329c-22.28 9.089-43.462.376-45.8-.644-11.284-4.935-21.129-13.691-27.727-24.67-6.621-11.022-9.696-23.852-8.656-36.119.07-.818 1.418-15.183 10.84-28.906a74.6 74.6 0 0 0-.666 15.536c2.282 35.861 31.185 65.271 67.243 68.405a76 76 0 0 0 6.563.283c3.579 0 7.138-.25 10.657-.763-3.854 2.707-8.06 5.088-12.454 6.878m21.587-14.473a69.1 69.1 0 0 1-25.874 2.637c-33.368-2.903-60.122-30.119-62.234-63.3a68.5 68.5 0 0 1 2.816-24.178 54 54 0 0 1 8.09-6.344 77 77 0 0 0-.754 10.126c-.072 19.43 7.545 37.84 21.451 51.825 13.914 13.998 32.353 21.789 51.938 21.936a78 78 0 0 0 11.602-.858c-1.908 2.681-4.286 5.46-7.035 8.156m11.335-16.067a22 22 0 0 1-.676 1.71 73 73 0 0 1-15.205 1.6c-18.098-.138-35.157-7.349-48.042-20.308-12.88-12.956-19.934-29.995-19.869-47.955.044-4.748.533-9.351 1.457-13.702 5.33-2.68 11.114-4.755 16.52-5.869 2.981-.612 5.751-.917 8.265-.917 5.22 0 9.344 1.303 11.972 3.86a11.8 11.8 0 0 1 2.476 3.553c.775 1.687 1.164 3.598 1.161 5.677-.1 20.652.356 32.554 1.401 36.38 2.733 9.997 8.144 16.248 12.203 19.731 8.711 7.473 18.852 9.008 24.121 9.258a9 9 0 0 1 1.521.208c1.095.251 2.515.753 3.048 1.682.561.982.433 2.839-.353 5.092" fill="#fff"/></g><defs><clipPath id="a"><path fill="#fff" d="M0 0h200v200H0z"/></clipPath></defs></svg>